<svg width="32" height="32" viewBox="0 0 32 32" fill="none" xmlns="http://www.w3.org/2000/svg">
<path d="M21.5662 6.13249C20.0352 4.36397 18.3126 2.77088 16.43 1.38249C16.304 1.29429 16.1538 1.24698 16 1.24698C15.8462 1.24698 15.696 1.29429 15.57 1.38249C13.6874 2.77088 11.9648 4.36397 10.4338 6.13249C7.0425 10.0325 5.25 14.1362 5.25 18C5.25 20.8511 6.38259 23.5854 8.3986 25.6014C10.4146 27.6174 13.1489 28.75 16 28.75C18.8511 28.75 21.5854 27.6174 23.6014 25.6014C25.6174 23.5854 26.75 20.8511 26.75 18C26.75 14.1362 24.9575 10.0325 21.5662 6.13249ZM16 27.25C13.5477 27.247 11.1966 26.2715 9.46255 24.5374C7.72848 22.8034 6.75298 20.4523 6.75 18C6.75 10.5475 14.125 4.38374 16 2.93624C17.875 4.38374 25.25 10.5475 25.25 18C25.247 20.4523 24.2715 22.8034 22.5374 24.5374C20.8034 26.2715 18.4523 27.247 16 27.25ZM22.74 19.125C22.4899 20.5225 21.8177 21.8099 20.8138 22.8138C19.8099 23.8177 18.5225 24.4899 17.125 24.74C17.0836 24.7463 17.0419 24.7496 17 24.75C16.8114 24.7507 16.6295 24.6804 16.4904 24.553C16.3514 24.4257 16.2654 24.2506 16.2497 24.0627C16.2339 23.8748 16.2895 23.6878 16.4054 23.5391C16.5213 23.3903 16.6889 23.2907 16.875 23.26C19.0475 22.895 20.8913 21.05 21.26 18.875C21.2932 18.6787 21.4029 18.5037 21.5651 18.3883C21.6455 18.3312 21.7362 18.2905 21.8323 18.2685C21.9284 18.2465 22.0278 18.2436 22.125 18.26C22.2222 18.2764 22.3152 18.3118 22.3987 18.3642C22.4822 18.4165 22.5545 18.4848 22.6116 18.5651C22.6688 18.6454 22.7095 18.7362 22.7315 18.8323C22.7535 18.9283 22.7564 19.0278 22.74 19.125Z" fill="#3B3B55"/>
</svg>
